<svg width="289" height="288" xmlns="http://www.w3.org/2000/svg" xmlns:xlink="http://www.w3.org/1999/xlink" overflow="hidden"><defs><clipPath id="clip0"><rect x="40" y="358" width="289" height="288"/></clipPath></defs><g clip-path="url(#clip0)" transform="translate(-40 -358)"><path d="M0 0 196.069 194.452" stroke="#993399" stroke-width="33.3333" stroke-linecap="round" stroke-linejoin="round" stroke-miterlimit="10" fill="none" fill-rule="evenodd" transform="matrix(-1 0 0 1 310.569 434.5)"/><path d="M0 0 254.904 252.801" stroke="#2A289D" stroke-width="33.3333" stroke-linecap="round" stroke-linejoin="round" stroke-miterlimit="10" fill="none" fill-rule="evenodd" transform="matrix(-1 0 0 1 312.404 376.5)"/><path d="M311.5 436.5 311.5 628.125" stroke="#993399" stroke-width="33.3333" stroke-linecap="round" stroke-linejoin="round" stroke-miterlimit="10" fill="none" fill-rule="evenodd"/><path d="M0 0 254.333 0.000104987" stroke="#2A289D" stroke-width="33.3333" stroke-linecap="round" stroke-linejoin="round" stroke-miterlimit="10" fill="none" fill-rule="evenodd" transform="matrix(-1 0 0 1 311.833 375.5)"/><path d="M310.058 627.362 274.5 592.5" stroke="#993399" stroke-width="33.3333" stroke-linecap="round" stroke-linejoin="round" stroke-miterlimit="10" fill="none" fill-rule="evenodd"/><path d="M0 0 141.952 140.781" stroke="#2A289D" stroke-width="33.3333" stroke-linecap="round" stroke-linejoin="round" stroke-miterlimit="10" fill="none" fill-rule="evenodd" transform="matrix(-1 0 0 1 200.452 419.5)"/><path d="M0 0 85.2816 84.5781" stroke="#993399" stroke-width="33.3333" stroke-linecap="round" stroke-linejoin="round" stroke-miterlimit="10" fill="none" fill-rule="evenodd" transform="matrix(-1 0 0 1 263.782 543.5)"/><path d="M0 0 140.726 0.000104987" stroke="#2A289D" stroke-width="33.3333" stroke-linecap="round" stroke-linejoin="round" stroke-miterlimit="10" fill="none" fill-rule="evenodd" transform="matrix(-1 0 0 1 198.226 419.5)"/><path d="M95.3596 457.15 58.5001 420.5" stroke="#2A289D" stroke-width="33.3333" stroke-linecap="round" stroke-linejoin="round" stroke-miterlimit="10" fill="none" fill-rule="evenodd"/><path d="M54.5001 560.5 54.5002 629.402" stroke="#2A289D" stroke-width="26.6667" stroke-linecap="round" stroke-linejoin="round" stroke-miterlimit="10" fill="none" fill-rule="evenodd"/><path d="M0 0 60.6847 0.000104987" stroke="#993399" stroke-width="26.6667" stroke-linecap="round" stroke-linejoin="round" stroke-miterlimit="10" fill="none" fill-rule="evenodd" transform="matrix(-1 0 0 1 177.185 632.5)"/></g></svg>